<svg width="1280" height="720" xmlns="http://www.w3.org/2000/svg" xmlns:xlink="http://www.w3.org/1999/xlink" overflow="hidden"><defs><clipPath id="clip0"><rect x="0" y="0" width="1280" height="720"/></clipPath><linearGradient x1="332.344" y1="-186.944" x2="947.656" y2="906.944" gradientUnits="userSpaceOnUse" spreadMethod="reflect" id="fill1"><stop offset="0" stop-color="#0D0D0D"/><stop offset="0.142857" stop-color="#0F0F0F"/><stop offset="0.285714" stop-color="#101010"/><stop offset="0.428571" stop-color="#121212"/><stop offset="0.571429" stop-color="#131313"/><stop offset="0.714286" stop-color="#141414"/><stop offset="0.857143" stop-color="#141414"/><stop offset="1" stop-color="#151515"/></linearGradient></defs><g clip-path="url(#clip0)"><rect x="0" y="0" width="1280" height="720" fill="url(#fill1)"/><g><g><g><path d="M1201.4 379.8C1199.2 378 1196.4 376.8 1193.6 376 1191.6 375.4 1189.4 375 1187 375 1184.8 375 1182.6 375.4 1180.4 376 1177.6 376.8 1174.8 378.2 1172.6 379.8 1171.6 380.6 1171 381.8 1171 383L1171 391 1203 391 1203 383C1203 381.8 1202.4 380.6 1201.4 379.8Z" fill="#843C0C"/><path d="M1179.2 358.2C1179.5 358.2 1179.75 358.1 1179.9 357.9L1179.9 357.9C1181.75 356.1 1184.25 355 1187 355 1192.5 355 1197 359.5 1197 365L1197 367.3 1191.25 369.2C1191 369.1 1190.75 369 1190.5 369 1189.65 369 1189 369.65 1189 370.5 1189 371.35 1189.65 372 1190.5 372 1191.1 372 1191.65 371.65 1191.9 371.1L1199.85 368.45C1200.25 368.3 1200.55 367.95 1200.55 367.5L1200.55 363C1200.55 362.45 1200.1 362 1199.55 362L1198.65 362C1197.3 356.85 1192.6 353 1187 353 1183.75 353 1180.8 354.3 1178.6 356.4 1178.35 356.6 1178.2 356.85 1178.2 357.2 1178.2 357.75 1178.65 358.2 1179.2 358.2Z" fill="#843C0C"/><path d="M1194.95 365.85C1195 365.55 1195 365.3 1195 365 1195 360.6 1191.4 357 1187 357 1182.6 357 1179 360.6 1179 365 1179 369.4 1182.6 373 1187 373 1187.15 373 1187.35 373 1187.5 372.95L1187.5 370.5 1187.5 370.5C1187.5 370.05 1187.6 369.6 1187.8 369.15 1188.15 368.45 1188.75 367.9 1189.55 367.65L1194.95 365.85Z" fill="#843C0C"/></g></g></g><g><g><g><path d="M462 167.5C457 167.5 453 163.5 453 158.5 453 153.5 457 149.5 462 149.5 467 149.5 471 153.5 471 158.5 471 163.5 467 167.5 462 167.5ZM452 151.5 446 151.5 446 147.5 452 147.5 452 151.5ZM480 143.5 470 143.5 467 138.5 457 138.5 454 143.5 444 143.5C442.9 143.5 442 144.4 442 145.5L442 169.5C442 170.6 442.9 171.5 444 171.5L480 171.5C481.1 171.5 482 170.6 482 169.5L482 145.5C482 144.4 481.1 143.5 480 143.5Z" fill="#2E75B6"/><path d="M462 153.5C459.2 153.5 457 155.7 457 158.5 457 161.3 459.2 163.5 462 163.5 464.8 163.5 467 161.3 467 158.5 467 155.7 464.8 153.5 462 153.5ZM462 165.5C458.1 165.5 455 162.4 455 158.5 455 154.6 458.1 151.5 462 151.5 465.9 151.5 469 154.6 469 158.5 469 162.4 465.9 165.5 462 165.5Z" fill="#2E75B6"/></g></g></g><g><g><g><path d="M315.5 234 340.5 234 340.5 268 315.5 268 315.5 234ZM312.5 271 343.5 271 343.5 231 312.5 231 312.5 271Z" fill="#843C0C"/><path d="M329 238.5 337.5 238.5 337.5 240.5 329 240.5Z" fill="#843C0C"/><path d="M329 246.5 337.5 246.5 337.5 248.5 329 248.5Z" fill="#843C0C"/><path d="M329 262.5 337.5 262.5 337.5 264.5 329 264.5Z" fill="#843C0C"/><path d="M329 254.5 337.5 254.5 337.5 256.5 329 256.5Z" fill="#843C0C"/><path d="M325.9 237.4 324.5 236 321.2 239.3 319.9 238 318.5 239.4 321.2 242.1Z" fill="#843C0C"/><path d="M325.9 245.4 324.5 244 321.2 247.3 319.9 246 318.5 247.4 321.2 250.1Z" fill="#843C0C"/><path d="M325.9 253.4 324.5 252 321.2 255.3 319.9 254 318.5 255.4 321.2 258.1Z" fill="#843C0C"/><path d="M325.9 261.3 324.5 259.9 321.2 263.2 319.9 261.9 318.5 263.3 321.2 266Z" fill="#843C0C"/></g></g></g><g><g><g><path d="M647.4 366.65C647.65 366.15 647.5 365.55 647 365.3 646.5 365.05 645.9 365.2 645.65 365.7L643.65 369.25 645 363.9C645.15 363.35 644.8 362.8 644.25 362.7 643.7 362.55 643.15 362.9 643.05 363.45L641.9 368.05 641.9 363.05C641.9 362.5 641.45 362.05 640.9 362.05 640.35 362.05 639.9 362.5 639.9 363.05L639.9 368.4 638.75 363.45C638.65 362.9 638.1 362.6 637.55 362.7 637 362.8 636.7 363.35 636.8 363.9L638.2 369.85C638.15 370.55 638 371.25 637.85 371.85 637.85 371.85 637.85 371.8 637.8 371.8 636.95 370.5 635.6 369.35 634.3 369 633.8 368.85 633.3 369.15 633.15 369.65 633 370.15 633.3 370.65 633.8 370.8 634.45 370.95 635.05 371.9 635.7 372.9 636.5 374.15 637.5 375.6 639 376.45L639 381.8 643.4 381.8 643.4 376.15C645.05 375.3 645.25 371.75 645.3 370.4L647.4 366.65Z" fill="#ADB9CA"/><path d="M629.75 367.05 634.1 367.1C634.1 367.1 634.1 367.1 634.1 367.1 634.65 367.1 635.1 366.65 635.1 366.1 635.1 365.55 634.65 365.1 634.1 365.1L630.05 365.05 635.35 363.7C635.9 363.55 636.2 363 636.05 362.5 635.9 361.95 635.35 361.65 634.85 361.8L630.25 363 634.65 360.6C635.15 360.35 635.3 359.75 635.05 359.25 634.8 358.75 634.2 358.6 633.7 358.85L629 361.35 632.8 358C633.2 357.65 633.25 357 632.9 356.6 632.55 356.2 631.9 356.15 631.5 356.5L626.9 360.5C626.25 360.8 625.6 361 624.95 361.1 624.95 361.1 624.95 361.05 625 361.05 625.75 359.65 626.1 357.95 625.8 356.65 625.7 356.15 625.15 355.85 624.65 355.95 624.15 356.05 623.85 356.6 623.95 357.1 624.1 357.75 623.6 358.7 623.05 359.75 622.35 361.05 621.55 362.6 621.5 364.35L616.8 366.9 618.9 370.75 623.85 368.1C625.35 369.15 628.55 367.65 629.75 367.05Z" fill="#ADB9CA"/><path d="M630.3 350.75 631.35 354.95C631.45 355.4 631.85 355.7 632.3 355.7 632.4 355.7 632.45 355.7 632.55 355.65 633.1 355.5 633.4 355 633.3 354.45L632.35 350.5 635 355.25C635.2 355.6 635.5 355.75 635.9 355.75 636.05 355.75 636.25 355.7 636.4 355.6 636.9 355.35 637.05 354.7 636.8 354.25L634.5 350.1 637.9 353.75C638.1 353.95 638.35 354.05 638.65 354.05 638.9 354.05 639.15 353.95 639.35 353.8 639.75 353.4 639.75 352.8 639.4 352.4L635.75 348.5 640 351.35C640.15 351.45 640.35 351.5 640.55 351.5 640.85 351.5 641.2 351.35 641.4 351.05 641.7 350.6 641.6 349.95 641.15 349.65L636.05 346.25C635.6 345.7 635.25 345.1 634.95 344.55 634.95 344.55 635 344.55 635 344.55 636.5 344.9 638.25 344.85 639.45 344.2 639.9 343.95 640.05 343.4 639.8 342.95 639.55 342.5 639 342.35 638.55 342.6 638 342.9 636.9 342.65 635.75 342.4 634.3 342.05 632.6 341.65 630.9 342.1L627.25 338.2 624.05 341.2 627.9 345.3C627.1 347.05 629.35 349.8 630.3 350.75Z" fill="#ADB9CA"/><path d="M663.2 370.4 659.4 366.25C660.05 364.5 657.8 361.75 656.9 360.75L655.9 356.55C655.75 356 655.25 355.7 654.7 355.8 654.15 355.95 653.85 356.45 653.95 357L654.9 360.95 652.25 356.15C652 355.65 651.4 355.5 650.9 355.75 650.4 356 650.25 356.6 650.5 357.1L652.8 361.3 649.4 357.65C649 357.25 648.4 357.2 648 357.6 647.6 358 647.55 358.6 647.95 359L651.6 362.95 647.4 360.1C646.95 359.8 646.3 359.9 646 360.35 645.7 360.8 645.8 361.45 646.25 361.75L651.3 365.2C651.75 365.75 652.1 366.35 652.4 366.9 652.4 366.9 652.35 366.9 652.35 366.9 650.85 366.55 649.1 366.6 647.9 367.25 647.45 367.5 647.25 368.05 647.5 368.5 647.75 368.95 648.3 369.15 648.75 368.9 649.3 368.6 650.4 368.85 651.55 369.15 653 369.5 654.7 369.9 656.4 369.5L660 373.4 663.2 370.4Z" fill="#ADB9CA"/><path d="M642.65 349C642.75 349 642.85 349 643 348.95L646.8 347.6 642.3 350.7C641.85 351 641.75 351.65 642.05 352.1 642.25 352.4 642.55 352.55 642.85 352.55 643.05 352.55 643.25 352.5 643.4 352.35L647.3 349.65 644 353.4C643.65 353.8 643.7 354.45 644.1 354.8 644.3 354.95 644.5 355.05 644.75 355.05 645.05 355.05 645.3 354.95 645.5 354.7L649.05 350.65 646.65 355.15C646.4 355.65 646.55 356.25 647.05 356.5 647.2 356.6 647.35 356.6 647.5 356.6 647.85 356.6 648.2 356.4 648.4 356.05L651.3 350.65C651.8 350.15 652.35 349.75 652.9 349.4 652.9 349.4 652.9 349.45 652.9 349.45 652.7 351 652.95 352.75 653.7 353.85 654 354.3 654.55 354.4 655 354.1 655.45 353.8 655.55 353.25 655.25 352.8 654.9 352.25 655.05 351.15 655.2 349.95 655.4 348.5 655.6 346.75 655.05 345.1L658.55 341.1 655.25 338.2 651.55 342.45C649.75 342 647.25 344.55 646.35 345.5L642.25 346.95C641.75 347.15 641.45 347.7 641.65 348.25 641.85 348.75 642.25 349 642.65 349Z" fill="#ADB9CA"/></g></g></g><g><g><g><path d="M804.1 653.95C803.95 653.95 803.75 653.95 803.6 653.95 803.6 653.95 803.6 653.95 803.6 653.95 803.6 651.5 802.4 649.25 800.45 647.85 798.45 646.45 795.9 646.1 793.6 646.9 791.7 643.2 787.5 641.3 783.5 642.25 779.5 643.2 776.6 646.8 776.6 650.95 776.6 650.95 776.6 651 776.6 651.05 773.85 650.6 771.1 651.75 769.4 653.95 767.75 656.2 767.45 659.15 768.6 661.65 769.8 664.15 772.3 665.8 775.05 665.95L775.05 666 804.05 666C807.35 666 810.05 663.3 810.05 660 810.05 656.7 807.4 653.95 804.1 653.95Z" fill="#2E75B6"/></g></g></g><g><g><g><path d="M1237.7 662.7C1237.3 660.35 1235.2 658.55 1232.75 658.55 1232.5 658.55 1232.2 658.6 1231.95 658.6 1230.75 657.1 1228.9 656.15 1226.8 656.15 1223.75 656.15 1221.2 658.2 1220.4 661 1217.6 661.55 1215.5 664 1215.5 666.95 1215.5 670.3 1218.2 673 1221.5 673L1221.5 673C1221.5 673 1236.3 673 1236.5 673 1239.4 673 1241.55 670.65 1241.55 667.75 1241.55 665.35 1239.9 663.35 1237.7 662.7ZM1236.2 670 1221.4 670C1220.25 669.9 1219.25 669.25 1218.75 668.25 1218.3 667.2 1218.4 666 1219.1 665.05 1219.7 664.25 1220.6 663.8 1221.55 663.8 1221.7 663.8 1221.9 663.8 1222.05 663.85L1222.95 664 1222.95 663C1222.95 661.2 1224.15 659.65 1225.9 659.25 1226.2 659.2 1226.5 659.15 1226.8 659.15 1226.8 659.15 1226.8 659.15 1226.8 659.15L1226.8 659.15C1226.8 659.15 1226.8 659.15 1226.8 659.15 1228.25 659.15 1229.55 659.95 1230.2 661.25L1230.5 661.85 1231.15 661.6C1231.45 661.5 1231.8 661.45 1232.15 661.45 1232.8 661.45 1233.4 661.65 1233.95 662 1234.75 662.6 1235.25 663.55 1235.25 664.55L1235.25 665.35 1236.25 665.35C1237.55 665.35 1238.6 666.4 1238.6 667.7 1238.55 668.95 1237.5 670 1236.2 670Z" fill="#2E75B6"/><path d="M1222.9 675 1202.1 675C1201.2 675 1200.5 675.7 1200.5 676.6L1200.5 690.9C1200.5 691.8 1201.2 692.5 1202.1 692.5 1202.1 692.5 1202.1 692.5 1202.1 692.5L1210 692.5 1210 694.5 1206.5 694.5 1206.5 697.5 1218.5 697.5 1218.5 694.5 1215 694.5 1215 692.5 1222.9 692.5C1223.8 692.5 1224.5 691.8 1224.5 690.9L1224.5 690.9 1224.5 676.6C1224.5 675.7 1223.8 675 1222.9 675ZM1221.5 689.5 1203.5 689.5 1203.5 678 1221.5 678 1221.5 689.5Z" fill="#2E75B6"/><path d="M1231.9 675C1232.4 675.65 1232.65 676.5 1232.65 677.3 1232.65 678.8 1231.8 680.15 1230.5 680.85L1230.5 678.8 1226.85 682.5 1230.5 686.1 1230.5 684.05C1234.25 683.05 1236.45 679.2 1235.4 675.45 1235.35 675.3 1235.3 675.15 1235.25 675L1231.9 675Z" fill="#2E75B6"/><path d="M1208.45 673C1208.05 672.5 1207.7 671.5 1207.7 670.7 1207.7 669.2 1208.55 667.85 1209.85 667.15L1209.85 669.2 1213.5 665.5 1209.85 661.9 1209.85 663.95C1206.1 664.95 1203.9 668.8 1204.95 672.55 1205 672.7 1205.05 672.85 1205.1 673L1208.45 673Z" fill="#2E75B6"/></g></g></g><g><g><g><path d="M1164.6 536.6C1164.6 532.5 1161.4 529.2 1157.35 529L1157.35 526 1133.35 526 1133.35 549C1133.35 550.1 1134.25 551 1135.35 551L1155.35 551C1156.45 551 1157.35 550.1 1157.35 549L1157.35 544.25C1161.4 544.05 1164.6 540.7 1164.6 536.6ZM1157.4 541.25 1157.4 532C1159.8 532.2 1161.65 534.2 1161.65 536.6 1161.65 539 1159.75 541.05 1157.4 541.25Z" fill="#7030A0"/><path d="M1144.45 516.25C1144.75 516.55 1144.9 516.9 1144.9 517.3 1144.9 517.7 1144.75 518.1 1144.45 518.35 1144.05 518.75 1144.05 519.35 1144.45 519.75 1144.65 519.95 1144.9 520.05 1145.15 520.05 1145.4 520.05 1145.65 519.95 1145.85 519.75 1146.5 519.1 1146.9 518.2 1146.9 517.25 1146.9 516.3 1146.55 515.45 1145.85 514.8 1145.85 514.8 1145.85 514.8 1145.85 514.8 1145.25 514.2 1145.25 513.25 1145.85 512.7 1146.25 512.3 1146.25 511.7 1145.85 511.3 1145.45 510.9 1144.85 510.9 1144.45 511.3 1143.05 512.65 1143.05 514.9 1144.45 516.25 1144.45 516.25 1144.45 516.25 1144.45 516.25Z" fill="#7030A0"/><path d="M1149.9 519.15C1150.5 519.75 1150.5 520.7 1149.9 521.25 1149.5 521.65 1149.5 522.25 1149.9 522.65 1150.1 522.85 1150.35 522.95 1150.6 522.95 1150.85 522.95 1151.1 522.85 1151.3 522.65 1152.65 521.3 1152.65 519.05 1151.3 517.7 1151.3 517.7 1151.3 517.7 1151.3 517.7 1151 517.4 1150.85 517.05 1150.85 516.65 1150.85 516.25 1151 515.85 1151.3 515.6 1151.7 515.2 1151.7 514.6 1151.3 514.2 1150.9 513.8 1150.3 513.8 1149.9 514.2 1149.25 514.85 1148.85 515.75 1148.85 516.7 1148.9 517.65 1149.25 518.5 1149.9 519.15 1149.9 519.15 1149.9 519.15 1149.9 519.15Z" fill="#7030A0"/><path d="M1139.45 519.15C1139.75 519.45 1139.9 519.8 1139.9 520.2 1139.9 520.6 1139.75 521 1139.45 521.25 1139.05 521.65 1139.05 522.25 1139.45 522.65 1139.65 522.85 1139.9 522.95 1140.15 522.95 1140.4 522.95 1140.65 522.85 1140.85 522.65 1141.5 522 1141.9 521.1 1141.9 520.15 1141.9 519.2 1141.55 518.35 1140.85 517.65L1140.85 517.65C1140.25 517.05 1140.25 516.1 1140.85 515.55 1141.25 515.15 1141.25 514.55 1140.85 514.15 1140.45 513.75 1139.85 513.75 1139.45 514.15 1138.05 515.6 1138.05 517.8 1139.45 519.15 1139.45 519.15 1139.45 519.15 1139.45 519.15Z" fill="#7030A0"/></g></g></g><g><g><g><path d="M920.515 170.265C920.515 172.413 918.773 174.155 916.625 174.155 914.477 174.155 912.735 172.413 912.735 170.265 912.735 168.117 914.477 166.375 916.625 166.375 918.773 166.375 920.515 168.117 920.515 170.265Z" fill="#2E75B6"/><path d="M899.77 170.265C899.77 172.413 898.028 174.155 895.88 174.155 893.732 174.155 891.99 172.413 891.99 170.265 891.99 168.117 893.732 166.375 895.88 166.375 898.028 166.375 899.77 168.117 899.77 170.265Z" fill="#2E75B6"/><path d="M923.63 177.525C922.508 176.652 921.21 176.033 919.825 175.71 918.784 175.406 917.709 175.238 916.625 175.21 915.54 175.208 914.462 175.376 913.43 175.71 912.397 175.985 911.41 176.41 910.5 176.97L910.32 177.175C911.774 177.567 913.134 178.247 914.32 179.175 915.252 179.86 915.796 180.953 915.78 182.11L915.78 183 924.405 183 924.405 179.085C924.422 178.469 924.132 177.884 923.63 177.525Z" fill="#2E75B6"/><path d="M896.74 182.11C896.741 180.984 897.259 179.92 898.145 179.225L898.2 179.175 898.265 179.13C899.465 178.276 900.793 177.618 902.2 177.18 902.1 177.075 902.005 176.965 901.915 176.855 901.028 176.34 900.071 175.954 899.075 175.71 898.036 175.406 896.962 175.238 895.88 175.21 894.794 175.207 893.714 175.376 892.68 175.71 891.315 176.087 890.027 176.701 888.875 177.525 888.39 177.898 888.103 178.473 888.095 179.085L888.095 183 896.74 183Z" fill="#2E75B6"/><path d="M898.47 186 898.47 182.11C898.472 181.498 898.761 180.923 899.25 180.555 900.399 179.727 901.688 179.112 903.055 178.74 904.087 178.404 905.165 178.235 906.25 178.24 907.334 178.265 908.41 178.434 909.45 178.74 910.836 179.059 912.135 179.678 913.255 180.555 913.758 180.911 914.051 181.494 914.035 182.11L914.035 186Z" fill="#2E75B6"/><path d="M910.14 173.29C910.14 175.438 908.398 177.18 906.25 177.18 904.102 177.18 902.36 175.438 902.36 173.29 902.36 171.142 904.102 169.4 906.25 169.4 908.398 169.4 910.14 171.142 910.14 173.29Z" fill="#2E75B6"/><path d="M922.5 146 890.125 146C889.02 146 888.125 146.895 888.125 148L888.125 159C888.125 160.105 889.02 161 890.125 161L897.5 161 897.5 164 900.65 161 904.05 161 906 164 907.8 161 911.35 161 914.5 164 914.5 161 922.5 161C923.605 161 924.5 160.105 924.5 159L924.5 148C924.5 146.895 923.605 146 922.5 146ZM893.125 150.5 916.5 150.5 916.5 151.5 893.125 151.5ZM911.5 156.5 893.125 156.5 893.125 155.5 911.5 155.5ZM919.5 154 893.125 154 893.125 153 919.5 153Z" fill="#2E75B6"/></g></g></g><g><g><g><path d="M71 638C71 640.209 64.732 642 57 642 49.268 642 43 640.209 43 638 43 635.791 49.268 634 57 634 64.732 634 71 635.791 71 638Z" fill="#2E75B6"/><path d="M67 648C66.4 648 66 647.6 66 647 66 646.4 66.4 646 67 646 67.6 646 68 646.4 68 647 68 647.6 67.6 648 67 648ZM57 644C49.3 644 43 642.2 43 640L43 648C43 650.2 49.3 652 57 652 64.7 652 71 650.2 71 648L71 640C71 642.2 64.7 644 57 644Z" fill="#2E75B6"/><path d="M67 658C66.4 658 66 657.6 66 657 66 656.4 66.4 656 67 656 67.6 656 68 656.4 68 657 68 657.6 67.6 658 67 658ZM57 654C49.3 654 43 652.2 43 650L43 658C43 660.2 49.3 662 57 662 64.7 662 71 660.2 71 658L71 650C71 652.2 64.7 654 57 654Z" fill="#2E75B6"/><path d="M67 668C66.4 668 66 667.6 66 667 66 666.4 66.4 666 67 666 67.6 666 68 666.4 68 667 68 667.6 67.6 668 67 668ZM57 664C49.3 664 43 662.2 43 660L43 668C43 670.2 49.3 672 57 672 64.7 672 71 670.2 71 668L71 660C71 662.2 64.7 664 57 664Z" fill="#2E75B6"/></g></g></g><g><g><g><path d="M530.34 478.96C532.27 476.75 535.5 473.055 535.5 469 535.504 461.544 529.464 455.497 522.008 455.492 515.349 455.488 509.682 460.34 508.66 466.92 508.16 470.3 509.5 473.545 510.575 476.145 510.965 477.001 511.284 477.887 511.53 478.795 511.64 479.345 511.755 480.12 511.88 480.945 512.53 485.275 513.075 488.19 514.645 489.215 516.26 490.345 518.174 490.97 520.145 491.01L520.585 491.01C529.615 490.51 529.47 483.575 529.415 480.96 529.415 480.67 529.415 480.29 529.415 480.085 529.58 479.835 530 479.355 530.34 478.96ZM515.645 468.17C517.514 465.98 520.464 465.042 523.255 465.75 527.156 466.821 529.456 470.845 528.4 474.75 527.815 476.89 525.62 478.35 524.305 479.25 524.105 479.38 523.87 479.54 523.735 479.635 523.735 479.74 523.67 479.89 523.64 480.005 523.335 481.23 522.58 484.24 519.11 484.24 518.567 484.228 518.028 484.158 517.5 484.03 516.635 483.805 515.907 483.221 515.5 482.425 515.002 481.501 514.932 480.405 515.31 479.425 515.474 478.898 516.034 478.603 516.561 478.766 517.089 478.93 517.384 479.49 517.22 480.018 517.209 480.054 517.195 480.09 517.18 480.125 517 480.569 517.029 481.07 517.26 481.49 517.394 481.77 517.63 481.988 517.92 482.1 520.67 482.695 521.24 481.35 521.695 479.525 521.755 479.109 521.917 478.714 522.165 478.375 522.465 478.073 522.801 477.81 523.165 477.59 524.245 476.87 526.055 475.67 526.44 474.255 527.212 471.414 525.539 468.484 522.7 467.705 520.655 467.207 518.504 467.901 517.135 469.5 516.414 470.282 515.873 471.212 515.55 472.225 515.8 472.76 516.112 473.263 516.48 473.725 516.825 474.156 516.756 474.785 516.325 475.13 516.148 475.272 515.927 475.35 515.7 475.35 515.395 475.351 515.106 475.213 514.915 474.975 511.648 470.901 512.303 464.95 516.377 461.684 520.451 458.417 526.402 459.072 529.668 463.146 530.522 464.21 531.135 465.446 531.465 466.77 531.603 467.306 531.281 467.852 530.745 467.99 530.209 468.128 529.663 467.806 529.525 467.27 528.536 463.273 524.495 460.835 520.498 461.824 517.111 462.662 514.758 465.737 514.835 469.225 515.083 468.857 515.353 468.505 515.645 468.17Z" fill="#333F50"/></g></g></g><g><g><g><path d="M27.5 28C26.95 28 26.5 27.55 26.5 27 26.5 26.45 26.95 26 27.5 26 28.05 26 28.5 26.45 28.5 27 28.5 27.55 28.05 28 27.5 28ZM19 22C17.8 22 16.5 22.1 15.2 22.3L8 18.5C8 18.5 8.05 21.4 9.1 23.6 4.8 24.7 0.75 26-2 26L-9 22C-9 24.75-7.5 29-7.5 29-7.5 29-9 33.25-9 36L-2 32C0.75 32 4.8 33.3 9.1 34.4 8.05 36.6 8 39.5 8 39.5L15.2 35.7C16.5 35.9 17.8 36 19 36 25.35 36 35 31.25 35 29 35 26.75 25.35 22 19 22Z" fill="#7F6000"/></g></g></g><g><g><g><path d="M86 229.5 82 229.5 82 227.5C82 226.4 82.9 225.5 84 225.5 85.1 225.5 86 226.4 86 227.5L86 229.5ZM63.45 213.25C63.7 213.3 63.9 213.35 64.15 213.45 64.65 213.6 65.25 213.8 66.4 213.8 67.55 213.8 68.1 213.6 68.65 213.45 69.1 213.3 69.45 213.2 70.3 213.2 71.1 213.2 71.45 213.3 71.95 213.45 72.45 213.6 73.05 213.8 74.2 213.8 75.35 213.8 75.9 213.6 76.45 213.45 76.9 213.3 77.25 213.2 78.1 213.2 78.95 213.2 79.25 213.3 79.75 213.45 80.25 213.6 80.85 213.8 82 213.8 83.15 213.8 83.7 213.6 84.25 213.45 84.7 213.3 85.05 213.2 85.9 213.2 86.7 213.2 87.1 213.3 87.55 213.45 88.05 213.6 88.65 213.8 89.8 213.8 90.95 213.8 91.5 213.6 92.05 213.45 92.3 213.35 92.5 213.3 92.75 213.25 94.15 215.85 95 218.85 95 222 95 224.65 94.4 227.2 93.25 229.5L88 229.5 88 225.5 89 225.5 89 223.5 89 221.5 87 221.5 87 223.5 85 223.5 85 221.5 83 221.5 83 223.5 81 223.5 81 221.5 79 221.5 79 223.5 79 225.5 80 225.5 80 229.5 62.75 229.5C61.65 227.2 61 224.65 61 222 61 218.85 61.85 215.85 63.45 213.25ZM69.1 207.55 70.5 206.65 70.5 205 85.5 205 85.5 206.65 86.9 207.55C88.65 208.65 90.15 210 91.35 211.5 91.3 211.5 91.3 211.5 91.25 211.55 90.8 211.7 90.45 211.8 89.6 211.8 88.8 211.8 88.4 211.7 87.95 211.55 87.45 211.4 86.85 211.2 85.7 211.2 84.6 211.2 84 211.4 83.45 211.55 83 211.7 82.65 211.8 81.8 211.8 81 211.8 80.65 211.7 80.15 211.55 79.65 211.4 79.05 211.2 77.9 211.2 76.75 211.2 76.2 211.4 75.65 211.55 75.2 211.7 74.85 211.8 74 211.8 73.15 211.8 72.85 211.7 72.35 211.55 71.85 211.4 71.25 211.2 70.1 211.2 68.95 211.2 68.4 211.4 67.85 211.55 67.4 211.7 67.05 211.8 66.2 211.8 65.4 211.8 65.05 211.7 64.55 211.55 64.5 211.55 64.5 211.55 64.45 211.5 65.85 210 67.35 208.65 69.1 207.55ZM88.5 205 88.5 203C88.5 202.45 88.05 202 87.5 202L68.5 202C67.95 202 67.5 202.45 67.5 203L67.5 205C61.8 208.55 58 214.8 58 222 58 229.75 62.4 236.45 68.85 239.8 69.15 239.95 69.45 240 69.75 240L86.25 240C86.55 240 86.85 239.95 87.15 239.8 93.6 236.45 98 229.75 98 222 98 214.8 94.2 208.55 88.5 205Z" fill="#7F6000"/><path d="M69 222.95C69.7 223.85 71 224.5 72.5 224.5 74.7 224.5 76.5 222.6 76.5 221.5 76.5 220.4 74.7 218.5 72.5 218.5 71 218.5 69.7 219.15 69 220.05 68.5 219.35 67.6 218.85 66.55 218.6 67.1 219.35 67.5 220.35 67.5 221.5 67.5 222.65 67.15 223.65 66.55 224.4 67.6 224.15 68.5 223.65 69 222.95Z" fill="#7F6000"/></g></g></g><g><g><g><path d="M1054.05 58.755C1052.62 58.0387 1051.13 57.4513 1049.6 57 1051.13 56.5487 1052.62 55.9613 1054.05 55.245 1056.36 53.8672 1057.16 50.9054 1055.87 48.545 1055.21 47.4151 1054.13 46.593 1052.87 46.26 1051.62 45.9052 1050.28 46.071 1049.15 46.72 1047.64 47.7587 1046.25 48.9739 1045.03 50.34 1045.59 48.5966 1045.94 46.792 1046.07 44.965 1045.99 42.2712 1043.74 40.1575 1041.04 40.2437 1038.47 40.326 1036.4 42.3924 1036.32 44.965 1036.45 46.7924 1036.8 48.5973 1037.36 50.34 1036.14 48.9725 1034.76 47.757 1033.24 46.72 1032.11 46.0705 1030.77 45.9046 1029.52 46.26 1028.26 46.5935 1027.18 47.4155 1026.52 48.545 1025.23 50.9054 1026.03 53.8672 1028.34 55.245 1029.78 55.9626 1031.28 56.5499 1032.81 57 1031.29 57.452 1029.8 58.0394 1028.38 58.755 1026.07 60.1328 1025.26 63.0946 1026.56 65.455 1027.21 66.5845 1028.29 67.4065 1029.56 67.74 1029.99 67.8584 1030.44 67.9189 1030.89 67.92 1031.72 67.9225 1032.55 67.7016 1033.28 67.28 1034.79 66.243 1036.18 65.0275 1037.4 63.66 1036.84 65.4027 1036.48 67.2076 1036.35 69.035 1036.44 71.7287 1038.69 73.8426 1041.39 73.7563 1043.96 73.674 1046.03 71.6076 1046.11 69.035 1045.98 67.2079 1045.63 65.4034 1045.06 63.66 1046.29 65.026 1047.67 66.2413 1049.19 67.28 1049.91 67.7011 1050.74 67.922 1051.58 67.92 1052.03 67.9192 1052.47 67.8587 1052.91 67.74 1054.17 67.407 1055.25 66.5849 1055.91 65.455 1057.19 63.0855 1056.37 60.1211 1054.05 58.755ZM1041.21 61.905C1038.5 61.9023 1036.31 59.7039 1036.31 56.995 1036.31 54.286 1038.51 52.0923 1041.22 52.095 1043.93 52.0977 1046.12 54.293 1046.12 57 1046.12 59.7097 1043.92 61.905 1041.21 61.905Z" fill="#7030A0"/></g></g></g><g><g><g><path d="M529 586C518.507 586 510 594.507 510 605 510 615.493 518.507 624 529 624 539.493 624 548 615.493 548 605 548 594.507 539.493 586 529 586ZM532.5 601.135 538.5 597.635C538.989 597.379 539.594 597.568 539.85 598.058 540.091 598.518 539.939 599.086 539.5 599.365L535 602 539.5 604.635C539.978 604.912 540.14 605.524 539.863 606.002 539.685 606.31 539.356 606.499 539 606.5 538.825 606.498 538.653 606.452 538.5 606.365L532.5 602.865C532.022 602.588 531.86 601.976 532.137 601.498 532.224 601.348 532.349 601.222 532.5 601.135ZM518.5 599.365C518.034 599.069 517.896 598.451 518.193 597.985 518.471 597.546 519.04 597.394 519.5 597.635L525.5 601.135C525.978 601.412 526.14 602.024 525.863 602.502 525.776 602.652 525.651 602.778 525.5 602.865L519.5 606.365C519.347 606.452 519.175 606.498 519 606.5 518.448 606.499 518.001 606.05 518.002 605.498 518.002 605.142 518.192 604.814 518.5 604.635L523 602ZM529 619C524.22 619.01 519.853 616.292 517.75 612L540.25 612C538.147 616.292 533.78 619.01 529 619Z" fill="#ADB9CA"/></g></g></g><g><g><g><path d="M757.5 518.8C755.35 513.85 751.45 510 746.4 508L745.65 509.85C750.15 511.65 753.7 515.1 755.65 519.6 757.55 524.1 757.65 529.05 755.85 533.55 754.05 538.05 750.6 541.6 746.1 543.55 741.6 545.45 736.65 545.55 732.15 543.75L731.4 545.6C733.25 546.35 735.2 546.8 737.15 546.95L737.15 548.9 727.15 548.9 727.15 551.9 751.15 551.9 751.15 548.9 741.15 548.9 741.15 546.9C743.1 546.7 745 546.15 746.9 545.4 751.9 543.25 755.7 539.35 757.7 534.3 759.7 529.25 759.65 523.8 757.5 518.8Z" fill="#843C0C"/><path d="M755.25 526.8C755.25 535.775 747.975 543.05 739 543.05 730.025 543.05 722.75 535.775 722.75 526.8 722.75 517.825 730.025 510.55 739 510.55 747.975 510.55 755.25 517.825 755.25 526.8Z" fill="#843C0C"/></g></g></g><g><g><g><path d="M54 542 26 542 26 525 54 525 54 542ZM57 524C57 522.9 56.1 522 55 522L25 522C23.9 522 23 522.9 23 524L23 545 57 545 57 524Z" fill="#548235"/><path d="M43 547 43 547.5C43 547.8 42.8 548 42.5 548L37.5 548C37.2 548 37 547.8 37 547.5L37 547 17 547 17 548C17 549.1 17.9 550 19 550L61 550C62.1 550 63 549.1 63 548L63 547 43 547Z" fill="#548235"/></g></g></g><g><g><g><path d="M205 62.1C203.8 62.1 202.8 61.1 202.85 59.85 202.85 58.65 203.85 57.65 205.05 57.65 206.25 57.65 207.25 58.65 207.25 59.85 207.25 60.45 207 61 206.6 61.4 206.15 61.85 205.6 62.1 205 62.1ZM202.85 55.15C201.75 55.55 200.9 56.4 200.35 57.4 199.65 58.75 199.55 60.3 200.1 61.7L202.5 66.9 204.1 70.2C204.25 70.55 204.6 70.75 205 70.75 205.4 70.75 205.75 70.55 205.9 70.2L207.5 66.9 209.9 61.75C210.15 61.15 210.25 60.5 210.25 59.85 210.25 56.35 206.65 53.7 202.85 55.15Z" fill="#843C0C"/><path d="M194 83.4 186 79.4 186 63.1 194 67.1 194 83.4ZM184 79.4 178 82.4 178 66.1 184 63.1 184 79.4ZM211.7 62.6 211.7 62.6 210.45 65.3 212 66.1 212 82.4 206 79.4 206 72.75 204 72.75 204 79.4 196 83.4 196 67.1 199.55 65.3 198.3 62.6 195 64.25 185 59.25 175 64.25 175 87.25 185 82.25 195 87.25 205 82.25 215 87.25 215 64.25 211.7 62.6Z" fill="#843C0C"/></g></g></g><g><g><g><path d="M448 379 414 379 414 357 448 357 448 379ZM449 354 413 354C411.9 354 411 354.9 411 356L411 380C411 381.1 411.9 382 413 382L427 382 427 385 422 385 422 388 440 388 440 385 435 385 435 382 449 382C450.1 382 451 381.1 451 380L451 356C451 354.9 450.1 354 449 354Z" fill="#548235"/></g></g></g><g><g><g><path d="M965 357C965 358.657 963.657 360 962 360 960.343 360 959 358.657 959 357 959 355.343 960.343 354 962 354 963.657 354 965 355.343 965 357Z" fill="#01BCFF"/><path d="M964.145 364.5C963.72 364.235 962.97 364.06 962.58 364.47 964.18 364.01 964.485 366.695 963.005 366.71 962.005 366.71 960.82 365.77 960.005 365.305 958.785 364.6 957.65 363.805 956.17 363.88 955.362 363.937 954.597 364.267 954 364.815 953.405 364.258 952.638 363.922 951.825 363.86 950.325 363.785 949.21 364.58 947.99 365.285 947.18 365.75 945.99 366.7 944.99 366.69 943.49 366.69 943.815 363.99 945.415 364.45 945.025 364.04 944.275 364.215 943.85 364.48 943.237 364.914 942.911 365.649 943 366.395 943.15 368.075 944.64 368.895 946.15 369.175 947.854 369.421 949.592 369.228 951.2 368.615 952.06 368.315 953.32 367.835 953.99 367.03 954.66 367.835 955.92 368.315 956.78 368.615 958.388 369.228 960.126 369.421 961.83 369.175 963.33 368.9 964.83 368.075 964.98 366.395 965.065 365.659 964.745 364.934 964.145 364.5Z" fill="#01BCFF"/><path d="M950 357C950 356.448 949.552 356 949 356L943 356C942.448 356 942 356.448 942 357 942 357.552 942.448 358 943 358L949 358C949.552 358 950 357.552 950 357Z" fill="#01BCFF"/><path d="M954 343C963.389 343 971 350.611 971 360 971 369.389 963.389 377 954 377 944.611 377 937 369.389 937 360 937 350.611 944.611 343 954 343M954 341C943.507 341 935 349.507 935 360 935 370.493 943.507 379 954 379 964.493 379 973 370.493 973 360 973 349.507 964.493 341 954 341Z" fill="#01BCFF"/></g></g></g><g><g><g><path d="M1027 200C1021.75 200 1017.5 195.75 1017.5 190.5L1017.5 165C1017.5 161.15 1020.65 158 1024.5 158 1028.35 158 1031.5 161.15 1031.5 165L1031.5 188.5C1031.5 191 1029.5 193 1027 193 1024.5 193 1022.5 191 1022.5 188.5L1022.5 176.5 1025.5 176.5 1025.5 188.5C1025.5 189.35 1026.15 190 1027 190 1027.85 190 1028.5 189.35 1028.5 188.5L1028.5 165C1028.5 162.8 1026.7 161 1024.5 161 1022.3 161 1020.5 162.8 1020.5 165L1020.5 190.5C1020.5 194.1 1023.4 197 1027 197 1030.6 197 1033.5 194.1 1033.5 190.5L1033.5 180 1036.5 180 1036.5 190.5C1036.5 195.75 1032.25 200 1027 200Z" fill="#2E75B6"/></g></g></g><g><g><g><path d="M838.94 344.185C839.978 343.092 839.934 341.364 838.841 340.326 838.334 339.845 837.663 339.576 836.965 339.575L836.9 339.575 836.4 339.575 836.46 339.575C837.907 339.153 838.738 337.637 838.316 336.189 837.912 334.807 836.505 333.976 835.1 334.29L828.155 336.07C828.925 335.345 829.565 334.66 829.995 334.185L837.04 331.685C837.939 331.366 838.409 330.379 838.09 329.48 837.771 328.581 836.784 328.111 835.885 328.43L829.29 330.765 837.035 325.375C837.831 324.846 838.047 323.772 837.518 322.977 836.99 322.181 835.916 321.964 835.12 322.493 835.1 322.507 835.08 322.521 835.06 322.535L828.31 327.24 834 320.725C834.589 319.973 834.457 318.885 833.705 318.296 833.008 317.75 832.011 317.819 831.395 318.455L825.305 325.455 829.445 317.69C829.853 316.826 829.482 315.795 828.618 315.387 827.813 315.008 826.851 315.301 826.395 316.065L821.395 325.395C820.555 326.211 819.633 326.94 818.645 327.57L818.645 327.455C818.985 324.79 818.56 321.78 817.23 319.835 816.725 319.096 815.716 318.907 814.977 319.413 814.239 319.918 814.05 320.926 814.555 321.665 815.19 322.59 814.945 324.515 814.68 326.55 814.39 329.055 814 332.055 815 334.915L811.815 338.565 809.315 338.565C808.763 338.565 808.315 339.013 808.315 339.565L808.315 347.065C808.315 347.617 808.763 348.065 809.315 348.065L813.85 348.065C815.995 350.885 821.85 351.17 824.085 351.17L824.135 351.17 830.5 354.56C830.893 354.768 831.331 354.876 831.775 354.875 833.283 354.875 834.505 353.652 834.504 352.144 834.504 351.267 834.082 350.443 833.37 349.93L835.37 350.39C836.839 350.713 838.295 349.792 838.63 348.325 838.956 346.855 838.033 345.398 836.565 345.065L836.465 345.065 836.965 345.065C837.716 345.055 838.43 344.737 838.94 344.185ZM828.34 343.235C827.788 343.181 827.296 343.585 827.242 344.138 827.189 344.69 827.593 345.181 828.145 345.235L836.17 347C836.562 347.09 836.809 347.477 836.725 347.87 836.681 348.057 836.566 348.22 836.405 348.325 836.242 348.43 836.044 348.465 835.855 348.42L826.645 346.365C826.107 346.24 825.57 346.575 825.445 347.113 825.342 347.557 825.552 348.014 825.955 348.225L832.14 351.5C832.509 351.663 832.675 352.095 832.511 352.463 832.348 352.832 831.917 352.998 831.548 352.835 831.516 352.82 831.485 352.804 831.455 352.785L824.85 349.285C824.705 349.209 824.544 349.169 824.38 349.17L824.38 349.17C820.585 349.22 816.275 348.435 815.285 346.59 815.11 346.267 814.773 346.065 814.405 346.065L810.31 346.065 810.31 340.565 813.72 340.565C814.089 340.564 814.427 340.36 814.6 340.035 815.88 337.65 818.125 336.065 820.1 334.675L820.28 334.545C822.195 333.195 823.85 332.045 824.19 330.545 824.269 330.213 824.602 330.007 824.935 330.085 825.096 330.119 825.236 330.219 825.32 330.36 825.408 330.5 825.437 330.669 825.4 330.83 824.96 332.715 823.285 334.91 821.135 336.425L821.1 336.5 821.055 336.53C820.599 336.841 820.481 337.463 820.792 337.92 820.929 338.121 821.134 338.265 821.37 338.325 822.571 338.649 823.803 338.846 825.045 338.915 825.143 338.917 825.24 338.907 825.335 338.885L835.575 336.25C835.761 336.201 835.959 336.228 836.125 336.325 836.292 336.422 836.413 336.582 836.46 336.77 836.566 337.154 836.343 337.551 835.96 337.66L827.46 339.85C826.924 339.984 826.599 340.527 826.733 341.063 826.845 341.509 827.246 341.821 827.705 341.82L827.73 341.82 836.985 341.6 836.985 341.6C837.387 341.633 837.685 341.986 837.652 342.388 837.623 342.743 837.341 343.026 836.985 343.055Z" fill="#ADB9CA"/></g></g></g><g><g><g><path d="M300 461 282 461 282 429 300 429 300 461ZM289 425 293 425C293.55 425 294 425.45 294 426 294 426.55 293.55 427 293 427L289 427C288.45 427 288 426.55 288 426 288 425.45 288.45 425 289 425ZM302 423 280 423C279.45 423 279 423.45 279 424L279 466C279 466.55 279.45 467 280 467L302 467C302.55 467 303 466.55 303 466L303 424C303 423.45 302.55 423 302 423Z" fill="#548235"/></g></g></g><g><g><g><path d="M126 364C115.5 364 107 372.5 107 383 107 393.5 115.5 402 126 402 136.5 402 145 393.5 145 383 145 372.5 136.5 364 126 364ZM121.45 399.35 122.75 398.55 118.95 392.7 112.2 390.9 111.8 392.4C110.15 389.9 109.1 386.9 109 383.7L110.2 384.7 114.6 379.3 114.25 372.35 112.75 372.45C114.65 370.05 117.2 368.15 120.15 367.1L119.5 368.5 126 371 132.5 368.5 131.95 367.05C134.9 368.15 137.4 370 139.35 372.4L137.85 372.3 137.5 379.25 141.9 384.65 143.1 383.65C142.95 386.85 141.95 389.8 140.3 392.35L139.9 390.85 133.15 392.65 129.35 398.5 130.65 399.3C129.2 399.7 127.65 399.95 126.1 399.95 124.55 399.95 122.9 399.8 121.45 399.35Z" fill="#333F50"/><path d="M132.5 382 126 377 119.5 382 122 389.5 126 389.5 130 389.5Z" fill="#333F50"/></g></g></g><g><g><g><path d="M338.325 652.315C337.085 651.665 332.23 650.03 328.15 648.445 327.15 648.05 326.255 647.32 326.08 646.25 325.875 645.01 326.735 644.135 327.65 643.335 330.15 641.125 332.62 640.535 333.62 639.535 335.606 637.617 335.661 634.451 333.743 632.465 331.824 630.479 328.659 630.424 326.673 632.342 326.631 632.382 326.59 632.423 326.55 632.465 326.05 632.965 325.45 633.965 324.63 635.01 321.795 638.565 321.085 638.945 319.075 638.945L319.075 638.945C317.898 638.915 316.867 638.148 316.5 637.03 315.355 633.82 314 629.88 313.44 628.835 312.344 626.866 309.859 626.159 307.89 627.255 305.921 628.351 305.214 630.836 306.31 632.805 307.388 634.393 308.617 635.873 309.98 637.225 311.002 638.254 311.456 639.718 311.195 641.145 310.763 643.288 308.787 644.761 306.61 644.565 306.11 644.525 305.73 644.5 305.51 644.5 303.809 644.5 302.43 645.879 302.43 647.58 302.43 649.281 303.809 650.66 305.51 650.66 305.98 650.66 307.2 650.555 308.72 650.365 309.968 650.196 311.182 650.856 311.72 651.995L311.72 651.995C312.22 653.06 311.72 654.11 311.22 655.18 310.891 655.875 310.508 656.544 310.075 657.18 309.475 658.337 309.928 659.762 311.085 660.361 312.169 660.923 313.503 660.564 314.16 659.535 314.54 658.875 314.895 656.84 316.295 654.035 316.471 653.6 316.8 653.244 317.22 653.035 318.077 652.672 319.066 653.073 319.428 653.93 319.457 653.997 319.481 654.065 319.5 654.135 319.66 654.675 319.81 655.135 319.91 655.37 320.445 656.433 321.741 656.861 322.804 656.325 323.724 655.862 324.188 654.812 323.91 653.82 323.81 653.596 323.693 653.38 323.56 653.175 323.224 652.668 323.332 651.987 323.81 651.61 324.283 651.296 324.912 651.361 325.31 651.765 328.89 654.845 333.175 658.825 334.5 659.53 336.463 660.636 338.951 659.941 340.057 657.978 341.163 656.015 340.469 653.527 338.505 652.421 338.44 652.384 338.373 652.348 338.305 652.315Z" fill="#7030A0"/><path d="M322.92 631C322.92 632.105 322.025 633 320.92 633 319.815 633 318.92 632.105 318.92 631 318.92 629.895 319.815 629 320.92 629 322.025 629 322.92 629.895 322.92 631Z" fill="#7030A0"/><path d="M306.92 638.605C306.92 640.044 305.754 641.21 304.315 641.21 302.876 641.21 301.71 640.044 301.71 638.605 301.71 637.166 302.876 636 304.315 636 305.754 636 306.92 637.166 306.92 638.605Z" fill="#7030A0"/><path d="M306.42 655C306.42 655.552 305.972 656 305.42 656 304.868 656 304.42 655.552 304.42 655 304.42 654.448 304.868 654 305.42 654 305.972 654 306.42 654.448 306.42 655Z" fill="#7030A0"/><path d="M319.42 661.25C319.42 661.664 319.084 662 318.67 662 318.256 662 317.92 661.664 317.92 661.25 317.92 660.836 318.256 660.5 318.67 660.5 319.084 660.5 319.42 660.836 319.42 661.25Z" fill="#7030A0"/><path d="M328.92 662.25C328.92 663.216 328.137 664 327.17 664 326.203 664 325.42 663.216 325.42 662.25 325.42 661.284 326.203 660.5 327.17 660.5 328.137 660.5 328.92 661.284 328.92 662.25Z" fill="#7030A0"/><path d="M335.92 646.5C335.92 647.052 335.472 647.5 334.92 647.5 334.368 647.5 333.92 647.052 333.92 646.5 333.92 645.948 334.368 645.5 334.92 645.5 335.472 645.5 335.92 645.948 335.92 646.5Z" fill="#7030A0"/></g></g></g><g><g><g><path d="M778.05 132.3C778.5 131.9 778.65 131.3 778.45 130.75 778.25 130.2 777.75 129.85 777.15 129.85L772.55 129.85C771.95 129.85 771.45 129.45 771.25 128.9L769.8 124.45C769.6 123.9 769.1 123.5 768.5 123.5 767.9 123.5 767.4 123.9 767.2 124.45L765.75 128.9C765.55 129.45 765.05 129.85 764.45 129.85L759.85 129.85C759.3 129.85 758.75 130.2 758.55 130.75 758.35 131.3 758.5 131.9 758.95 132.3L760.55 133.75 762.6 135.55C762.8 135.75 762.95 135.95 763 136.2 763.05 136.45 763.05 136.75 763 137L761.6 141.7C761.4 142.25 761.6 142.85 762.1 143.2 762.55 143.55 763.2 143.55 763.7 143.25L767.7 140.45C768.15 140.1 768.8 140.1 769.25 140.45L773.25 143.25C773.75 143.6 774.35 143.55 774.85 143.2 775.3 142.85 775.5 142.25 775.35 141.7L774 137C773.85 136.5 774 135.9 774.4 135.55L778.05 132.3Z" fill="#ADB9CA"/><path d="M795.1 139.55C795.45 139.25 795.55 138.75 795.4 138.35 795.25 137.9 794.85 137.65 794.4 137.6L790.75 137.6C790.3 137.6 789.85 137.3 789.7 136.85L788.55 133.25C788.4 132.8 788 132.5 787.5 132.5 787.05 132.5 786.6 132.8 786.45 133.25L785.3 136.85C785.15 137.3 784.75 137.6 784.25 137.6L780.6 137.6C780.15 137.6 779.75 137.9 779.6 138.35 779.45 138.8 779.55 139.25 779.9 139.55L781.2 140.7 782.85 142.15C783 142.3 783.1 142.5 783.2 142.7 783.25 142.9 783.25 143.1 783.2 143.35L782 147.05C781.85 147.5 782 148 782.4 148.25 782.8 148.55 783.3 148.55 783.65 148.25L786.85 146C787.2 145.75 787.7 145.75 788.1 146L791.3 148.25C791.7 148.55 792.2 148.55 792.6 148.25 793 147.95 793.15 147.45 793 147L791.9 143.25C791.8 142.85 791.9 142.4 792.25 142.1L795.1 139.55Z" fill="#ADB9CA"/><path d="M781.2 153.8C781.45 153.55 781.55 153.2 781.45 152.9 781.35 152.6 781 152.35 780.7 152.35L777.95 152.35C777.6 152.35 777.3 152.1 777.2 151.8L776.3 149.1C776.15 148.75 775.85 148.5 775.5 148.5 775.15 148.5 774.85 148.75 774.7 149.05L773.8 151.75C773.7 152.1 773.4 152.3 773.05 152.3L770.3 152.3C769.95 152.3 769.65 152.5 769.55 152.85 769.45 153.15 769.55 153.55 769.8 153.75L770.75 154.6 771.95 155.7C772.05 155.8 772.15 155.95 772.2 156.1 772.25 156.25 772.25 156.4 772.2 156.55L771.35 159.4C771.25 159.75 771.35 160.1 771.65 160.3 771.95 160.5 772.3 160.5 772.6 160.3L775 158.6C775.3 158.4 775.65 158.4 775.95 158.6L778.35 160.3C778.65 160.5 779 160.5 779.3 160.3 779.6 160.1 779.7 159.7 779.6 159.4L778.75 156.55C778.65 156.25 778.75 155.9 779 155.7L781.2 153.8Z" fill="#ADB9CA"/></g></g></g><g><g><g><path d="M992.5 603C992.5 603.828 993.172 604.5 994 604.5 994.828 604.5 995.5 603.828 995.5 603L995.5 594.5 992.5 594.5Z" fill="#7030A0"/><path d="M991.785 582.961C990.676 582.961 989.611 583.393 988.815 584.166 988.588 584.379 988.407 584.638 988.287 584.925 987.102 587.56 983.732 591.285 980.587 593.687 979.925 594.184 979.792 595.125 980.29 595.787 980.788 596.449 981.728 596.582 982.39 596.084 982.396 596.08 982.402 596.075 982.408 596.07 984.27 594.623 985.977 592.985 987.5 591.184L987.5 602.917C987.486 603.651 987.986 604.296 988.7 604.467 989.512 604.633 990.304 604.109 990.47 603.297 990.489 603.205 990.499 603.111 990.5 603.017L990.5 593.464 997.3 593.464C998.35 594.365 1000.25 594.964 1002.5 594.964L1002.99 594.964 1002.99 584.604 1001.34 582.961 991.785 582.961Z" fill="#7030A0"/><path d="M1008.54 588.75 1014.99 588.75 1016.5 584.962 1021 584.962C1022.65 584.957 1023.99 583.617 1024 581.962L1020.9 580.562C1020.47 578.751 1018.86 577.469 1017 577.462L1014.25 577.462 1013.7 580.662C1013.52 581.469 1014.03 582.269 1014.84 582.449 1014.86 582.454 1014.88 582.458 1014.9 582.462 1015.4 582.571 1015.92 582.399 1016.25 582.012 1016.45 581.767 1016.59 581.474 1016.65 581.162L1017 579.262C1017.05 578.985 1017.31 578.8 1017.59 578.85 1017.87 578.9 1018.05 579.165 1018 579.442 1018 579.449 1018 579.456 1018 579.462L1017.7 581.312C1017.6 582.024 1017.2 582.66 1016.6 583.062 1016.19 583.344 1015.7 583.484 1015.2 583.462 1015.05 583.47 1014.9 583.453 1014.75 583.412 1014.02 583.282 1013.38 582.845 1013 582.212 1012.7 581.68 1012.6 581.062 1012.7 580.462L1013.15 577.812 1009.65 581.662C1009.64 581.675 1009.62 581.688 1009.61 581.701L1002.21 574.293C1002.02 574.105 1001.77 574 1001.5 574L996.25 574C995.698 574 995.25 574.448 995.25 575 995.25 575.265 995.356 575.519 995.543 575.707ZM1001.09 576 1007.87 582.787C1007.51 582.9 1007.13 582.959 1006.75 582.961L1005.63 582.961 998.664 576Z" fill="#7030A0"/><path d="M1004.49 594.964 1004.5 594.964 1004.5 602.865C1004.48 603.679 1005.09 604.372 1005.9 604.464 1006.74 604.505 1007.46 603.854 1007.5 603.011 1007.5 602.996 1007.5 602.98 1007.5 602.964L1007.5 594.964 1009.5 594.964 1009.5 602.917C1009.49 603.651 1009.99 604.296 1010.7 604.467 1011.51 604.633 1012.3 604.109 1012.47 603.297 1012.49 603.205 1012.5 603.111 1012.5 603.017L1012.5 593.714C1013.29 592.651 1013.92 591.485 1014.39 590.25L1004.49 590.25Z" fill="#7030A0"/></g></g></g><g><g><g><path d="M594.865 46C594.589 45.5227 593.978 45.3594 593.5 45.635L587.5 49.135C587.022 49.4121 586.86 50.024 587.137 50.5018 587.224 50.6524 587.349 50.7776 587.5 50.865L593.5 54.365C593.653 54.4517 593.825 54.4981 594 54.5 594.552 54.499 594.999 54.0505 594.998 53.4982 594.998 53.1423 594.808 52.8136 594.5 52.635L590 50 594.5 47.365C594.977 47.0886 595.141 46.4778 594.865 46Z" fill="#01BCFF"/><path d="M593.73 58.705C593.292 58.3703 592.666 58.453 592.33 58.89 588.8 63.4906 582.208 64.3581 577.608 60.8278 576.88 60.2692 576.229 59.6178 575.67 58.89 575.333 58.4523 574.705 58.3706 574.268 58.7075 573.83 59.0444 573.748 59.6723 574.085 60.11 576.444 63.2003 580.112 65.0096 584 65L584.115 65C584.647 67.4277 587.046 68.9648 589.474 68.433 591.901 67.9013 593.438 65.5022 592.907 63.0745 592.806 62.6138 592.633 62.172 592.395 61.765 592.94 61.258 593.442 60.7061 593.895 60.115 594.239 59.6831 594.168 59.0539 593.736 58.7097 593.734 58.7082 593.732 58.7066 593.73 58.705ZM588.5 66.5C587.438 66.4943 586.496 65.8186 586.15 64.815 587.803 64.5322 589.38 63.9146 590.785 63 590.928 63.3139 591.001 63.6551 591 64 591 65.3807 589.881 66.5 588.5 66.5Z" fill="#01BCFF"/><path d="M574.5 54.365 580.5 50.865C580.978 50.5879 581.14 49.976 580.863 49.4982 580.776 49.3476 580.651 49.2224 580.5 49.135L574.5 45.635C574.011 45.379 573.406 45.5682 573.15 46.0575 572.909 46.518 573.061 47.0862 573.5 47.365L578 50 573.5 52.635C573.022 52.9121 572.86 53.524 573.137 54.0018 573.315 54.3097 573.644 54.4994 574 54.5 574.175 54.4981 574.347 54.4517 574.5 54.365Z" fill="#01BCFF"/><path d="M584 36C593.389 36 601 43.6111 601 53 601 62.3889 593.389 70 584 70 574.611 70 567 62.3889 567 53 567 43.6111 574.611 36 584 36M584 34C573.507 34 565 42.5066 565 53 565 63.4934 573.507 72 584 72 594.493 72 603 63.4934 603 53 603 42.5066 594.493 34 584 34Z" fill="#01BCFF"/></g></g></g><g><g><g><path d="M623.5 207C623.5 208.933 621.933 210.5 620 210.5 618.067 210.5 616.5 208.933 616.5 207 616.5 205.067 618.067 203.5 620 203.5 621.933 203.5 623.5 205.067 623.5 207Z" fill="#7F6000"/><path d="M652.5 207C652.5 208.933 650.933 210.5 649 210.5 647.067 210.5 645.5 208.933 645.5 207 645.5 205.067 647.067 203.5 649 203.5 650.933 203.5 652.5 205.067 652.5 207Z" fill="#7F6000"/><path d="M612 186 640 186 640 198 612 198Z" fill="#7F6000"/><path d="M644 191 647 191C647.9 191 648.7 191.6 648.9 192.45L649.9 195.9C649.9 195.95 649.95 195.95 649.95 196L644 196 644 191ZM647 189 642 189 642 196 642 199 642 207 644 207C644 204.25 646.25 202 649 202 651.75 202 654 204.25 654 207 655.1 207 656 206.1 656 205L656 200C656 199.35 655.7 198.8 655.2 198.4L652.55 196.4C652.2 196.15 651.95 195.75 651.85 195.35L650.85 191.9C650.35 190.2 648.75 189 647 189Z" fill="#7F6000"/><path d="M640 207 625 207C625 204.25 622.75 202 620 202 617.25 202 615 204.25 615 207L612 207 612 200 640 200 640 207Z" fill="#7F6000"/></g></g></g><g><g><g><path d="M1152.5 231.8C1152.19 232.107 1151.81 232.345 1151.4 232.5L1151.4 239.5C1151.4 240.328 1152.07 241 1152.9 241 1153.73 241 1154.4 240.328 1154.4 239.5L1154.4 231.4C1155.18 231.85 1156.16 231.727 1156.8 231.1L1158 229.9C1157.02 229.792 1156.06 229.539 1155.15 229.15Z" fill="#333F50"/><path d="M1185 212.1 1180.21 207.31 1184.71 200.765C1184.79 200.652 1184.76 200.496 1184.65 200.417 1184.56 200.353 1184.43 200.358 1184.34 200.43L1177.92 205.535 1177.92 203.75C1177.93 203.62 1177.83 203.509 1177.7 203.5 1177.69 203.499 1177.68 203.499 1177.67 203.5 1176.71 203.511 1175.93 204.288 1175.92 205.25L1175.92 205.5C1174.14 204.47 1171.92 204.83 1170.33 207.105 1169.88 207.79 1169.45 208.445 1169.04 209.06 1168.47 209.678 1167.63 209.985 1166.8 209.885 1167 210.306 1167.36 210.627 1167.8 210.775 1167.59 211.045 1167.38 211.305 1167.17 211.55 1166.4 212.343 1165.34 212.778 1164.24 212.75 1164.87 213.605 1165.81 214.184 1166.85 214.365 1165.84 215.07 1164.65 215.464 1163.42 215.5L1155.42 215.5C1154.24 215.486 1153.09 215.835 1152.12 216.5L1148.05 216.5C1145.5 216.5 1143.31 218.03 1143.17 220.5 1143.06 222.17 1143.05 223.085 1142.96 223.875 1142.68 225.23 1141 225.705 1141 225.705 1141.45 225.977 1141.98 226.094 1142.5 226.04 1141.81 227.39 1140.12 228.5 1140.12 228.5 1140.12 228.5 1145.12 229.725 1146.82 225.19 1147.17 225.245 1147.52 225.191 1147.82 225.035 1147.82 225.035 1147.09 224.66 1147.32 223.035 1147.67 220.66 1149.42 220.6 1149.42 220.6L1149.42 228.5C1149.42 227.672 1148.74 227 1147.92 227 1147.09 227 1146.42 227.672 1146.42 228.5L1146.42 239.5C1146.42 240.328 1147.09 241 1147.92 241 1148.74 241 1149.42 240.328 1149.42 239.5L1149.42 231.4C1150.19 231.85 1151.17 231.727 1151.81 231.1L1154.96 227.95C1156.35 228.631 1157.87 228.99 1159.42 229L1165.92 229 1165.92 239.5C1165.92 240.328 1166.59 241 1167.42 241 1168.24 241 1168.92 240.328 1168.92 239.5L1168.92 229C1169.6 228.985 1170.27 228.867 1170.92 228.65L1170.92 239.5C1170.92 240.328 1171.59 241 1172.42 241 1173.24 241 1173.92 240.328 1173.92 239.5L1173.92 226.3C1174.57 225.326 1174.92 224.176 1174.92 223L1174.92 222.75C1174.92 217.375 1176.27 213.5 1177.92 213.5L1178.5 214.1C1179.06 214.658 1179.81 214.98 1180.6 215L1181.9 215 1182 215.1C1182.78 215.887 1184.04 215.897 1184.83 215.122 1184.84 215.115 1184.84 215.107 1184.85 215.1L1185 214.95C1185.75 214.148 1185.75 212.902 1185 212.1Z" fill="#333F50"/></g></g></g><g><g><g><path d="M856 37C856 41.4183 852.418 45 848 45 843.582 45 840 41.4183 840 37 840 32.5817 843.582 29 848 29 852.418 29 856 32.5817 856 37Z" fill="#843C0C"/><path d="M864 63 864 55C864 53.8 863.4 52.6 862.4 51.8 860.2 50 857.4 48.8 854.6 48 852.6 47.4 850.4 47 848 47 845.8 47 843.6 47.4 841.4 48 838.6 48.8 835.8 50.2 833.6 51.8 832.6 52.6 832 53.8 832 55L832 63 864 63Z" fill="#843C0C"/></g></g></g><g><g><g><path d="M1198.5 66C1198.5 66.5523 1198.05 67 1197.5 67 1196.95 67 1196.5 66.5523 1196.5 66 1196.5 65.4477 1196.95 65 1197.5 65 1198.05 65 1198.5 65.4477 1198.5 66Z" fill="#843C0C"/><path d="M1198.5 70C1198.5 70.5523 1198.05 71 1197.5 71 1196.95 71 1196.5 70.5523 1196.5 70 1196.5 69.4477 1196.95 69 1197.5 69 1198.05 69 1198.5 69.4477 1198.5 70Z" fill="#843C0C"/><path d="M1196.5 68C1196.5 68.5523 1196.05 69 1195.5 69 1194.95 69 1194.5 68.5523 1194.5 68 1194.5 67.4477 1194.95 67 1195.5 67 1196.05 67 1196.5 67.4477 1196.5 68Z" fill="#843C0C"/><path d="M1200.5 68C1200.5 68.5523 1200.05 69 1199.5 69 1198.95 69 1198.5 68.5523 1198.5 68 1198.5 67.4477 1198.95 67 1199.5 67 1200.05 67 1200.5 67.4477 1200.5 68Z" fill="#843C0C"/><path d="M1212.5 64C1212.5 64.5523 1212.05 65 1211.5 65 1210.95 65 1210.5 64.5523 1210.5 64 1210.5 63.4477 1210.95 63 1211.5 63 1212.05 63 1212.5 63.4477 1212.5 64Z" fill="#843C0C"/><path d="M1212.5 68C1212.5 68.5523 1212.05 69 1211.5 69 1210.95 69 1210.5 68.5523 1210.5 68 1210.5 67.4477 1210.95 67 1211.5 67 1212.05 67 1212.5 67.4477 1212.5 68Z" fill="#843C0C"/><path d="M1210.5 66C1210.5 66.5523 1210.05 67 1209.5 67 1208.95 67 1208.5 66.5523 1208.5 66 1208.5 65.4477 1208.95 65 1209.5 65 1210.05 65 1210.5 65.4477 1210.5 66Z" fill="#843C0C"/><path d="M1214.5 66C1214.5 66.5523 1214.05 67 1213.5 67 1212.95 67 1212.5 66.5523 1212.5 66 1212.5 65.4477 1212.95 65 1213.5 65 1214.05 65 1214.5 65.4477 1214.5 66Z" fill="#843C0C"/><path d="M1226 72.5 1223 75.5 1219 75.5 1219 86.5 1223 86.5 1226 89.5 1229 89.5 1229 72.5Z" fill="#843C0C"/><path d="M1211.5 70.5C1209 70.5 1207 68.5 1207 66 1207 63.5 1209 61.5 1211.5 61.5 1214 61.5 1216 63.5 1216 66 1216 68.5 1214 70.5 1211.5 70.5ZM1213 86.5C1212.45 86.5 1212 86.05 1212 85.5 1212 84.95 1212.45 84.5 1213 84.5 1213.55 84.5 1214 84.95 1214 85.5 1214 86.05 1213.55 86.5 1213 86.5ZM1203.5 72.5C1204.15 71.6 1204.65 70.6 1204.85 69.45 1205.5 70.7 1206.55 71.75 1207.75 72.5L1203.5 72.5ZM1197.5 72.5C1195 72.5 1193 70.5 1193 68 1193 65.5 1195 63.5 1197.5 63.5 1200 63.5 1202 65.5 1202 68 1202 70.5 1200 72.5 1197.5 72.5ZM1215.2 72.5C1217.45 71.2 1219 68.8 1219 66 1219 61.85 1215.65 58.5 1211.5 58.5 1207.85 58.5 1204.85 61.1 1204.15 64.55 1202.9 62.15 1200.4 60.5 1197.5 60.5 1193.35 60.5 1190 63.85 1190 68 1190 70.45 1191.2 72.6 1193 74L1193 75.5 1192 75.5 1191 74.5 1189 74.5 1189 79.5 1191 79.5 1192 78.5 1193 78.5 1193 87.5C1193 88.6 1193.9 89.5 1195 89.5L1215 89.5C1216.1 89.5 1217 88.6 1217 87.5L1217 74.5C1217 73.45 1216.2 72.6 1215.2 72.5Z" fill="#843C0C"/></g></g></g></g></svg>